<svg id="Capa_1" data-name="Capa 1" xmlns="http://www.w3.org/2000/svg" viewBox="0 0 266.35 384"><defs><style>.cls-1{fill:#fff;}</style></defs><title>coraje</title><path class="cls-1" d="M939,732.75c-3.06-2-3.67-4.94-3.65-8.41.11-18.24,0-36.49,0-54.74V666l-33.8-11.4v25.11c0,3.37.07,6.75,0,10.12-.11,3.53-2.35,5.9-5.44,6s-5.5-2.3-5.73-5.75c-.15-2.36,0-4.74,0-7.12,0-10.5-.08-21,.06-31.49a6.27,6.27,0,0,0-3.12-6.06c-34-23.2-54.86-55.13-58.88-96.11C823,493.74,845,450.59,891.77,420.16c2.68-1.74,4-3.39,3.58-6.51a38.77,38.77,0,0,1,0-6,15.86,15.86,0,0,1,15.43-15.33c5.1-.16,10.21,0,15.67,0,.08-1.2.18-2.77.29-4.33a16,16,0,0,1,15.67-15.14c3.5-.13,7-.09,10.5,0,7.21.15,12.21,3.78,14.94,9.29,5.78,0,11-.06,16.21,0,7.53.11,12.76,3.73,15.54,10.18,5.46,0,10.65,0,15.85,0,9.72.08,17.19,6.86,16.39,16.48-.76,9.09,2.31,14.4,9.81,19.72,19,13.5,32.55,31.86,41.8,53.3,1.7,3.94.71,7.27-2.43,8.57s-6.06-.15-7.91-4.18c-.16-.34-.33-.67-.48-1A121.16,121.16,0,0,0,1036.07,438c-1.16-.92-2.38-1.77-3.62-2.68-2,4.47-4,5.91-7.32,5.05-3.77-1-4.36-4-4.33-7.32.06-7.63,0-15.25,0-22.88,0-5.14-1.5-6.58-6.74-6.6h-7.88c-3.5,0-5.48,1.89-5.49,5.28q-.12,28.13,0,56.25c0,3.22,2,5,5.29,5.11s6.51.12,9.75,0,5-2,5.06-5.28a35.26,35.26,0,0,1,.1-4.12,5.44,5.44,0,0,1,5.95-5c3.2.3,5.13,2.17,5.14,5.37.06,15.12.27,30.25-.18,45.36-.22,7.46-3.78,13.91-9.08,19.24s-10.39,10.47-15.66,15.62a21.51,21.51,0,0,0-6.86,16.43c.08,4.73,0,9.46,0,14.08,8.95,2.59,10.37,4.51,10.37,13.63,0,8.87,0,17.74,0,26.62-.05,7.81-3.45,11.12-11.28,11.14H986.36v30.26c9.51-1.75,18.12-5.28,26.78-8.85,5.18-2.14,7.08-4.93,6.93-10.76-.47-18.11-.14-36.24-.2-54.37,0-3.34.83-6,4.38-6.89,3.8-1,6.86,1.89,6.88,6.65,0,12.75,0,25.5,0,38.25v15.78c21.34-10.34,50.59-56.86,49.37-78.35-6.26,1.92-11.34,5.22-14.23,11.24-1.35,2.8-2.4,5.75-3.57,8.63-1.31,3.2-3.58,5.1-7.12,5.12a7.15,7.15,0,0,1-7.18-5c-.46-1.16-.94-2.31-1.31-3.5a24.21,24.21,0,0,0-16.75-16.75,24.12,24.12,0,0,1-4.84-2,7.44,7.44,0,0,1,.12-13,8.56,8.56,0,0,1,2.06-.89c10.72-2.85,17.49-9.6,20.37-20.34,1-3.62,3.45-5.84,7.31-5.89,4,0,6.53,2.22,7.61,6,2.78,9.65,8.35,16.65,18.35,19.48.34.09.71.1,2.1.28-.76-8.39-1.48-16.51-2.23-24.62-.07-.74-.32-1.47-.39-2.21-.33-3.62,1.71-6.39,4.94-6.76a5.5,5.5,0,0,1,6.15,5.23c.86,10.56,2.57,21.22,1.87,31.7-3,44.54-23.58,79.22-60.46,104.25-1.9,1.29-2.2,2.67-2.19,4.63,0,12.63.09,25.25-.06,37.87,0,1.86-.53,4.3-1.77,5.4a7.55,7.55,0,0,1-5.68,1.34c-2.81-.49-3.73-3-3.72-5.74,0-10.37,0-20.75,0-31.12v-3.76L986.1,666v9.57c0,16.25-.06,32.5,0,48.74,0,3.47-.61,6.4-3.65,8.41h-3.75c-3.17-1.65-4-4.33-4-7.77.11-18,.05-36,0-54,0-1.31-.11-2.61-.16-3.74h-28v4.11c0,17.86-.06,35.73.05,53.6,0,3.44-.79,6.11-4,7.77Zm60.17-149.12c-5.83,0-11.18,0-16.53,0-4.12-.05-6.49-2.21-6.42-5.67,0-3.26,2.41-5.38,6.26-5.53,2.07-.09,4.14,0,6.5,0,0-5.19.06-9.79,0-14.4a32.59,32.59,0,0,1,10.38-24.8c5.11-5,10.41-9.79,15-15.18,2.66-3.11,5.47-7.11,5.85-10.95.87-8.62.28-17.38.28-25.85-8.71-.22-17.62,2.35-25.55-3.6-4.16,3.55-9.07,3.8-14.16,3.9-8.09.15-16.18-2.79-24.32.63-2.49,1.05-5.8.16-8.73.16l-.54,1.15a11.43,11.43,0,0,1,1.9,1.09c9.29,7.86,12.22,18.2,11.45,29.91-.22,3.5-2.66,5.7-5.8,5.6s-5.2-2.3-5.37-6c0-1.12,0-2.25,0-3.37.08-9.19-3.71-16.09-11.93-20.48q-7.44-4-14.7-8.23c-3.61-2.12-4.63-6.31-1.91-8.74a9.51,9.51,0,0,1,5.72-2c9.36-.21,18.74,0,28.11-.13,5.28-.06,9-3.13,9.52-8.2a113.7,113.7,0,0,0,.08-11.54,10.71,10.71,0,0,0-1.73-.32c-17.12,0-34.24-.14-51.35,0-6.77.07-10.45,4.22-10.47,11.08-.05,13.49,0,27,0,40.49a21.25,21.25,0,0,0,6.53,15.79c4.77,4.77,9.38,9.7,14.24,14.39a33.81,33.81,0,0,1,10.69,26.22c-.09,4.33,0,8.66,0,13.34,7.55,0,14.64,0,21.73,0,4.66,0,7.24,2.12,7.18,5.75s-2.43,5.46-7,5.48c-9.38,0-18.75,0-28.12,0h-4v28.15h13.51c0-3.18-.09-6.16,0-9.12.15-3.75,2.51-6.21,5.69-6.18s5.4,2.44,5.5,6.26c.07,3,0,5.93,0,9h28.21c0-3,0-5.72,0-8.45.06-4.2,2-6.66,5.35-6.8s5.77,2.53,5.87,6.76c.07,2.83,0,5.65,0,8.48h13.07ZM895.3,432.07l-1.17-.47c-36.89,26-56.72,61.29-55.33,106.93,1.22,39.71,19.26,71.15,51.55,95.58V629q0-24.18,0-48.37a14.92,14.92,0,0,1,.37-4.07,5.11,5.11,0,0,1,5.6-4,5.2,5.2,0,0,1,5.18,5,33.48,33.48,0,0,1,.08,3.75c0,18.75.06,37.5-.06,56.24,0,2.76.74,4.37,3.36,5.38,7.32,2.82,14.54,5.9,21.89,8.67a69.42,69.42,0,0,0,8.41,2.07V623.25c-5.17,0-10.14.07-15.1,0-5.67-.11-9.57-3.77-9.63-9.32-.12-10.74-.1-21.5,0-32.24,0-4.59,2.74-7.73,7.15-8.91,1-.28,2.08-.54,3.23-.83,0-4.85,0-9.46,0-14.08a22,22,0,0,0-6.81-16.47c-5.17-5.09-10.21-10.3-15.27-15.48a31.6,31.6,0,0,1-9.36-23q.08-20.62,0-41.24a22.13,22.13,0,0,1,4.44-13.63,6.56,6.56,0,0,0,1.38-3.32C895.4,440.52,895.3,436.3,895.3,432.07ZM975,470.12c3,0,6.62.24,10.16-.07,2.87-.25,4.28-2.27,4.28-5.2q0-33.14,0-66.26c0-3.35-1.82-5.08-5.07-5.21-3-.13-6-.1-9,0-4.46.1-6,1.65-6,6.24-.06,12.85-.07,25.7.06,38.55a5.45,5.45,0,0,0,1.74,3.67,11.77,11.77,0,0,1,4.54,9.8C975.46,457.68,975.19,463.74,975,470.12Zm-17.49-30.59c.22-.43.42-.64.42-.85,0-16.6.1-33.19,0-49.78,0-3.16-2-4.72-5.06-4.84-2.62-.1-5.24,0-7.86,0-5.69,0-7.07,1.36-7.08,7.05q0,22.47,0,44.92c0,1.19.14,2.37.22,3.53ZM946.84,623.44v32.31h27.75V623.44ZM926.55,439.75c0-11,.11-21.43-.08-31.89-.05-2.91-2.25-4.3-5.15-4.32-3.12,0-6.24-.08-9.37,0-3.59.1-5.26,1.73-5.36,5.3-.1,3.87,0,7.74,0,11.61v19.29ZM1040,546.11c3.06,2.31,6.21,4.21,8.73,6.73s4.62,5.82,6.82,8.68c2.09-2.74,4-5.85,6.5-8.35s5.82-4.64,9.06-7.15c-6.87-3.2-11.93-8.45-15.61-15.82A33.25,33.25,0,0,1,1040,546.11Z" transform="translate(-827.59 -348.75)"/><path class="cls-1" d="M1052.25,348.75c1.81,2.23,4.36,4.2,5.3,6.75,2.48,6.71,6.64,11.31,13.54,13.32,3.79,1.1,6.64,3.1,6.63,7.46s-3,6.36-6.71,7.42c-7,2-11.17,6.61-13.39,13.4-1.6,4.9-3.73,6.6-7.48,6.51-4.21-.11-6.14-2.81-7.19-6.45a18.87,18.87,0,0,0-13.64-13.62c-3.67-1.07-6.3-3-6.39-7.22-.07-3.73,1.65-5.81,6.58-7.43a19.8,19.8,0,0,0,13.36-13c.91-2.62,3.22-4.76,4.89-7.11Zm5.13,27.53-7-7-7,7,6.88,6.91Z" transform="translate(-827.59 -348.75)"/><path class="cls-1" d="M901.06,546.55c-.07,3.37-1.65,5.94-4.85,6.81-8.34,2.29-13.54,7.43-15.82,15.78-.87,3.2-3.39,4.89-6.77,4.86s-5.83-1.69-6.72-4.93c-2.28-8.34-7.51-13.47-15.86-15.73-3.21-.87-4.89-3.52-4.84-6.83,0-3.13,1.66-5.67,4.73-6.51,8.47-2.32,13.74-7.57,16.07-16,.89-3.22,3.55-4.85,6.86-4.77a6.43,6.43,0,0,1,6.48,4.78c2.27,8.53,7.61,13.7,16.06,16C899.47,540.86,900.91,543.36,901.06,546.55Zm-34.52,0,6.79,7.41,7.37-7.34-7.09-7.09Z" transform="translate(-827.59 -348.75)"/></svg>