<svg xmlns="http://www.w3.org/2000/svg" viewBox="0 0 348.15 511.04"><defs><style>.cls-1{fill:#fff;}</style></defs><title>creatividad</title><g id="Capa_2" data-name="Capa 2"><g id="Capa_1-2" data-name="Capa 1"><path class="cls-1" d="M173.75,0c26.9,21.22,43.12,47.93,42.73,83.17-.09,8.15-.27,16.3,0,24.44a7.26,7.26,0,0,0,2.72,5c7.12,5,10.74,11.52,10.66,20.22-.12,14.64-.19,29.27-.13,43.91,0,4.08-1.14,7.33-5.18,8.68s-7-.46-9.43-3.74c-4.25-5.73-8.69-11.31-13.23-17.19-20.48,15.69-41,16.18-62,.28-.7.74-1.63,1.59-2.39,2.56q-5.7,7.26-11.33,14.57c-2.39,3.12-5.21,5.22-9.38,3.89-4.51-1.44-5.15-5-5.11-9.16.14-14.63.15-29.26.23-43.9,0-8.48,3.65-15.16,10.8-19.58,2.53-1.57,3.14-3.24,3.19-6,.21-13.12,0-26.29,1.12-39.35,1.09-13.28,6.43-25.35,13.55-36.57,2.5-3.94,6.58-4.8,10.3-2.5,3.56,2.21,4.5,5.86,2.55,9.94l-11.6,24.39H200c-2-5.52-3.5-10.56-5.67-15.29-5.76-12.59-14.37-23.08-24.74-32.16-7.11-6.23-7.25-8.94-.8-15.71Zm27.63,78.7H140.71c0,9.29.17,18.08-.08,26.85-.1,3.31.91,4.82,4,6.19,12.32,5.47,16.51,18.42,10.06,30.26-1.81,3.33-3.88,6.53-5.8,9.74,11,13.23,34.45,12.93,43.65-.44-1.37-2.25-2.79-4.5-4.12-6.79-8.52-14.69-4.92-26.17,10.44-33.83,1.09-.54,2.4-2,2.42-3.09C201.46,98,201.38,88.42,201.38,78.7Zm12.1,76.69,1.34-.49c0-7.76.43-15.56-.25-23.26-.22-2.45-3-6-5.29-6.58-2.59-.66-6.34.79-8.76,2.49-2.88,2-1.91,5.26-.09,8C204.81,142.15,209.14,148.78,213.48,155.39Zm-86.65-.45,1.23.58c4.66-7.16,9.57-14.18,13.78-21.6.92-1.63.16-5.79-1.25-6.8-2.22-1.6-6-2.61-8.47-1.83-2.21.7-4.85,4-5.05,6.41C126.43,139.4,126.83,147.19,126.83,154.94Z"/><path class="cls-1" d="M256.59,0c6.72,2.9,5.18,9.16,5.6,14.7,5.89,1.35,14.84-1.82,14.52,8.41-.3,9.54-8.73,6.16-14.18,7.29-1.6,5.6,2.1,14.48-7.95,14.48s-6.45-8.83-7.93-14.39c-5.64-1.25-14,2.12-14.35-7.93-.2-5.22,2.26-6.46,14.53-7.83.71-5.25-1.17-11.86,5.77-14.73Z"/><path class="cls-1" d="M164.47,302.37c12.14-9.48,21.25-28.72,22.87-48.66H19.24c-1.34,13.66-3.39,27.45-3.92,41.3-1.11,29.22,2.39,57.81,15.67,84.37,3.7,7.38,8.59,14.19,13.15,21.11,3.11,4.71,3.13,8.51-.49,11.42-3.79,3-7.86,2.21-11.5-2.45-17.12-22-26-47.29-29.89-74.52C-1.83,306-.2,277.23,5.81,248.68c2-9.6,2.65-10,12.53-10.33.65,0,1.3-.15,2.54-.3-3.06-9.13-5.87-18.11-9.12-26.93A24.11,24.11,0,0,1,10.87,197c4.85-22.23,9.37-44.53,14.06-66.8,1.86-8.87,7.38-10.94,14.23-5.21,17.87,14.92,35.73,29.86,53.4,45a19.69,19.69,0,0,1,5.3,8.1q9.78,27.7,19,55.63c1.2,3.63,2.91,4.84,6.7,4.7,8.46-.3,16.94-.09,26-.09.09-2,.24-3.7.24-5.44,0-12.64,0-25.28,0-37.92,0-6.52,2.43-9.49,7.56-9.42s7.37,3,7.38,9.65c0,14.13,0,28.25,0,42.75h13V210.54c0-5.65-.07-11.31,0-17,.09-5.25,2.76-8,7.46-8s7.4,2.87,7.43,8.09c.1,13.64,0,27.28,0,40.92,0,1,.11,2,.22,3.74,6.76,0,13.52.22,20.23-.19,1.3-.08,2.8-2.47,3.6-4.09q24-48.72,47.82-97.52c7.89-16.1,21-20.65,37.12-12.86q14.36,6.93,28.66,14c15.44,7.57,20,20.91,12.4,36.5q-14.29,29.34-28.66,58.63c-.79,1.62-1.52,3.28-2.29,5,7.41,2,8.57,3.58,8.72,11.16.59,28.1,8.92,53.93,23.19,77.92,4.77,8,6.24,16,1.88,24.57-3.2,6.27-8.22,10.62-15.19,11.77-3.73.61-4.34,2.45-4.71,5.57-4.95,41.73-26.49,71.94-63.86,90.8C245,468,226.85,471,208.1,470.38c-4.29-.13-8.58,0-13.26,0-.11,2.06-.27,3.66-.28,5.26,0,8.49,0,17,0,25.45,0,7.39-2.57,9.94-9.86,10-10.48,0-21,0-31.44,0q-40.67,0-81.33,0c-7.39,0-9.9-2.49-9.91-9.84,0-21.79.07-43.58-.06-65.37,0-5.34,2-8.09,7.12-10.37,16.08-7.13,29.3-18.29,40.28-31.92,5.25-6.53,9.62-13.77,14.78-21.24-15.68-5.34-26-14.7-30.26-29.78a40.11,40.11,0,0,1,4.42-32.64C112.21,286.62,136.39,283.92,164.47,302.37Zm38.4-48.91c-.23,1-.42,1.65-.51,2.3-.25,1.64-.41,3.3-.66,4.94-3.45,22.34-12.95,41.4-30.55,56-6.9,5.71-9.52,5.36-15.46-1.12-6.7-7.32-14.75-12.11-25.05-10.84A26.88,26.88,0,0,0,107.17,332a27.16,27.16,0,0,0,25.24,26.22c8.9.72,11.45,4.83,8,12.88C128,399.72,108,421.47,80.69,436.51c-2.89,1.6-3.87,3.29-3.83,6.53.2,13.14.08,26.28.08,39.42v13.36H179.61c0-10.2,0-20.13,0-30.06,0-8.09,2.22-10.24,10.44-10.29,9.32-.05,18.63.11,27.94-.2a92.26,92.26,0,0,0,54.44-19.57c25.08-19.37,38-45.14,39-76.82.23-7.42,2.53-9.7,10-9.79a33.38,33.38,0,0,0,4.48-.15c5.76-.85,8.74-6.09,6.51-11.46a37.73,37.73,0,0,0-2.39-4.36c-9.87-16.92-17.19-34.85-21-54.07-1.68-8.4-2.58-17-3.86-25.59Zm121.69-76.18c1.82-3.73,3.45-7,5-10.24,3.51-7.47,1.89-12.17-5.57-15.86-9.53-4.71-19.09-9.34-28.66-14-8.89-4.32-13.13-2.83-17.54,6.17q-22,45-44,89.95c-.71,1.44-1.27,3-1.9,4.43.6.29.87.54,1.14.54,19.63,0,39.25.09,58.88,0a4.85,4.85,0,0,0,3.57-1.82c1.71-2.75,3-5.78,4.51-9-7.28-3.54-14-6.7-20.67-10.11-5.5-2.82-6.26-8.83-1.8-12.67,2.8-2.42,5.71-2,8.8-.5,6.63,3.28,13.32,6.46,20.28,9.81l11.36-23.25c-4.47-2.2-8.36-4-12.17-6-4.68-2.45-6.08-6.07-4.1-10.2s5.76-5.32,10.53-3.17C316.13,173.13,320,175.08,324.56,177.28Zm-246.5.88c-.31-.74-.35-1.13-.56-1.31q-9.66-8.22-19.36-16.39c-9.64-8.15-9.66-8.2-21.25-3.34A5.09,5.09,0,0,0,34.05,160c-2.69,12.06-5.16,24.16-7.8,36.72,9.62.66,18.69,1.32,27.77,1.86a4.7,4.7,0,0,0,3.16-.9C64.24,191.18,71.19,184.6,78.06,178.16Zm-1,59.94h25.48L86.53,190.8c-6.14,5.72-11.79,10.84-17.24,16.16a4.67,4.67,0,0,0-1.17,3.85C71,220,74.1,229.07,77.11,238.1Zm-15.78.26c-2.65-8.11-5.06-15.64-7.62-23.11a3,3,0,0,0-2.12-1.68c-7.7-.65-15.42-1.14-23.72-1.72,2.88,8.51,5.45,16.36,8.28,24.12a4.28,4.28,0,0,0,3.14,2.28C46.39,238.46,53.5,238.36,61.33,238.36Z"/><path class="cls-1" d="M314.24,86.18c-1.71,12.73-2.92,15.07-8.14,14.6-9.46-.86-6.52-8.69-7.62-14.5-5.65-1.21-14.71,2-14.34-8.21.34-9.2,8.6-6.56,14.37-7.33,1-6-1.77-14,7.93-14.64,5.07-.33,6.35,2.3,7.72,14.43,5.58,1.38,14.93-2,14.3,8.64C327.92,88.35,319.83,85.13,314.24,86.18Z"/><path class="cls-1" d="M52.26,51.81c1.12-6-1.91-15,8.33-14.47,8.89.44,6.41,8.42,7.13,14.33,5.68,1.23,14.68-2,14.48,8.15C82,69.36,73.61,66.21,68,67.17,66.53,73,70,82.06,59.65,81.73c-9.53-.31-6.16-8.78-7.38-14.41C46.58,66,37.46,69.62,37.9,59.14,38.29,49.77,46.55,52.71,52.26,51.81Z"/><path class="cls-1" d="M213.48,155.39c-4.34-6.61-8.67-13.24-13-19.84-1.82-2.74-2.79-6,.09-8,2.42-1.7,6.17-3.15,8.76-2.49,2.26.57,5.07,4.13,5.29,6.58.68,7.7.25,15.5.25,23.26Z"/><path class="cls-1" d="M253.59,276.37c14.52.08,26.74,11.8,27,25.91.1,5.21-2,8-6.42,8.41-4.71.49-7.68-2-8.46-7-1.26-8.12-5.47-12.32-12.36-12.32s-11.27,4.34-12.54,12.27q-1.25,7.78-8.29,7.08c-4.5-.45-6.92-3.75-6.52-8.89A27.35,27.35,0,0,1,253.59,276.37Z"/><path class="cls-1" d="M132.19,338.36a7.12,7.12,0,0,1-7.3-7.16,7.24,7.24,0,0,1,7.3-7.71c4.07.07,7,3.19,7,7.46S136.33,338.3,132.19,338.36Z"/></g></g></svg>