<svg xmlns="http://www.w3.org/2000/svg" viewBox="0 0 384.12 327.65"><defs><style>.cls-1{fill:#fff;}</style></defs><title>determinacion</title><g id="Capa_2" data-name="Capa 2"><g id="Capa_1-2" data-name="Capa 1"><path class="cls-1" d="M384.12,204.27c-2.26,5.68-6.57,8.75-12.39,10.24-4.34,1.11-9.57,1.66-12.53,4.44s-3.32,8-5.07,12.1c-2.18,5-4.73,9.91-6.84,15a6.54,6.54,0,0,0,0,4.67c2,4.45,4.37,8.7,6.5,13.07,3,6.18,2.25,11.1-2.6,16.06s-9.84,10-14.83,14.86-10,5.59-16.08,2.58c-4.37-2.15-8.61-4.58-13.06-6.54a6.73,6.73,0,0,0-4.74.07Q290.13,295.65,278,301a6.81,6.81,0,0,0-3.34,3.31c-1.72,4.41-3,9-4.52,13.48-2.21,6.57-6.17,9.65-13,9.78-7.25.13-14.5.15-21.75,0-6.73-.14-10.54-3.08-12.75-9.56-1.54-4.48-2.76-9.08-4.51-13.48a7.27,7.27,0,0,0-3.58-3.55q-12-5.26-24.15-10a7.32,7.32,0,0,0-5.07-.13c-4.46,1.93-8.68,4.39-13.06,6.52-5.93,2.9-11.08,2.1-15.79-2.47-2.69-2.59-5.21-5.35-7.81-8-7,3.88-13.89,5.26-21.27,3.07a25.21,25.21,0,0,1-17.83-29.72c1.77-8,3.88-16,6.29-23.88,1.1-3.61.3-5.11-3.26-5.58-1.35-.18-2.66-.63-4.42-1.06-.49,1.55-1,3-1.42,4.53-2.35,8.8-4.45,17.67-7.13,26.37a22.55,22.55,0,0,1-5.13,8.88c-16.36,16.69-33,33.14-49.49,49.67-7.54,7.54-16.7,9.7-26.88,7.82C4.43,324.38-8.6,301.11,7.32,284.49,19.59,271.67,31.89,258.8,45,246.92c10.26-9.26,17-19.7,19.2-33.41.89-5.45,2.17-10.38.18-16-2.19-6.13-1.17-12.57.53-18.83q5.79-21.32,11.48-42.65c.36-1.36.58-2.76,1.08-5.19-5.39,2.38-9.86,4.18-14.14,6.37-.93.48-1.32,2.28-1.67,3.55-3.29,12-6.33,24.14-9.83,36.12A19.63,19.63,0,0,1,32.72,191c-8.95,0-16.83-5.31-19.16-13.92A25.24,25.24,0,0,1,13.31,165c3.83-15.75,8.21-31.38,12.44-47,1.45-5.41,4.3-10.14,9.38-12.54C51.58,97.6,67.76,89,85.61,84.69c14.48-3.51,29.06-3.87,43.08,1.88,5.68,2.33,10.78,6.06,16.63,9.42,3.19-3.2,6.93-7,10.75-10.8,5.27-5.2,10-5.93,16.65-2.63,4.36,2.16,8.63,4.51,13.06,6.52a5.74,5.74,0,0,0,4-.06Q202.48,84,215,78.58a5.77,5.77,0,0,0,2.89-2.85c1.79-4.79,3.2-9.72,4.88-14.55,2.11-6,6.32-9.1,12.68-9.17q10.88-.1,21.75,0c6.33.06,10.62,3.16,12.71,9.17,1.64,4.71,2.95,9.54,4.74,14.19A6.75,6.75,0,0,0,278,78.7q12.15,5.28,24.5,10.13a6.67,6.67,0,0,0,4.68,0c4.56-2,8.91-4.49,13.4-6.67,5.82-2.82,10.81-2,15.45,2.47q7.8,7.57,15.38,15.37c4.51,4.63,5.32,9.67,2.52,15.47-2.16,4.49-4.65,8.84-6.68,13.39a6.65,6.65,0,0,0,0,4.67q4.83,12.34,10.14,24.5a7.48,7.48,0,0,0,3.64,3.49,88.41,88.41,0,0,0,11.36,3.77c5.74,1.52,9.8,4.73,11.71,10.45ZM221.92,138.2c31.58-13.19,58.29,1,70.78,18.77a56.84,56.84,0,0,1-66.58,86,55.59,55.59,0,0,1-31.9-30.48c-6.34-14.44-6.11-29.14-.57-44.51-6.83,3.93-12.87,7.42-18.94,10.89-7.45,4.26-12.5,3.62-18.51-2.38-3.87-3.86-7.67-7.77-12-12.13l-4.77,17.84c1.49.47,2.64.87,3.82,1.19,7.71,2.08,15.44,4.1,23.13,6.23,8.86,2.45,12.52,8.81,10.14,17.71-6.32,23.71-12.7,47.4-19.22,71.72,1.85,1.78,4.33,3.9,6.5,6.29,1.51,1.66,2.78,1.55,4.55.6,4.17-2.26,8.46-4.31,12.65-6.53,4.69-2.48,9.12-2.1,13.94.13,8,3.7,16.2,7.07,24.47,10.14,4.7,1.74,8,4.37,9.53,9.19s2.92,9.55,4.72,14.2a4.62,4.62,0,0,0,3.33,2.44c6.12.24,12.25,0,18.37.15,2.07,0,3.12-.63,3.72-2.72,1.37-4.8,3-9.51,4.59-14.25s4.73-7.26,9.29-9c8.38-3.14,16.69-6.54,24.83-10.26,4.69-2.15,9-2.54,13.6-.16,4.32,2.24,8.71,4.35,13,6.69,1.86,1,3.06.79,4.52-.75q6.34-6.65,13-13c1.43-1.37,1.55-2.47.61-4.19-2.44-4.49-4.69-9.09-7-13.65-2.14-4.22-1.76-8.25.18-12.56q5.67-12.6,10.6-25.51c1.73-4.55,4.42-7.69,9.08-9.16s9.23-3.08,13.89-4.46c2.1-.62,3-1.57,2.93-3.91-.18-6-.15-12,0-18,.05-2.1-.59-3.11-2.66-3.7-4.68-1.34-9.27-3-13.9-4.45-4.92-1.55-7.71-4.88-9.49-9.73-3-8.29-6.4-16.48-10.14-24.48-2.25-4.83-2.63-9.19-.1-13.9,2.65-4.94,5.1-10,7.51-14.74-5.72-5.69-11.28-11.23-17.05-17-4.77,2.42-9.89,5-15,7.62-4.6,2.39-8.89,2-13.58-.21-8-3.71-16.2-7.09-24.48-10.14-4.84-1.78-8.2-4.54-9.76-9.47-1.51-4.75-2.95-9.54-4.71-14.2a4.19,4.19,0,0,0-3-2.27c-6.25-.21-12.5,0-18.75-.16-2.28-.07-3,1-3.58,2.84-1.43,4.65-3,9.25-4.48,13.9-1.49,4.82-4.76,7.5-9.45,9.26-8.39,3.13-16.69,6.55-24.82,10.29-4.56,2.09-8.77,2.55-13.25.25s-8.72-4.32-13-6.66c-1.9-1-3.2-1.13-4.81.62-3.38,3.67-7,7.1-10.54,10.66-.6.6-1.63,1.52-1.48,2,1.11,3.75,1.65,8.06,3.92,11,3.94,5.09,9.07,9.26,13.57,14,1.49,1.55,2.63,1.69,4.47.57,5.77-3.49,11.64-6.81,17.5-10.14A19.33,19.33,0,0,1,204.82,120C214.72,121.92,220.09,128.23,221.92,138.2ZM102.65,94.33c-2.7.36-7.83.73-12.82,1.78-13.68,2.89-26,9.3-38.65,15-14.72,6.63-12.09,4-16.17,18.86-3.5,12.75-6.94,25.53-10.18,38.35-1.69,6.67,3.62,12,10,10.41,3.88-1,5.46-4,6.41-7.58q4.53-17.19,9.17-34.36a23.75,23.75,0,0,1,1.74-4.92c2.94-5.58,20.91-13.47,27-12a12.8,12.8,0,0,1,9.68,16c-4,15.59-8.29,31.11-12.37,46.68-3.71,14.15,3.68,26.91,17.69,30.72,7.94,2.16,15.9,4.27,23.84,6.49,8.66,2.42,12.24,8.73,10,17.48-2.09,8-4.3,15.9-6.33,23.88s1.91,15.22,9.12,17.23c7.65,2.13,14.94-2.2,17.16-10.39,5.67-21,11.23-41.95,16.93-62.9.67-2.46.29-3.56-2.37-4.21-7.63-1.87-15.2-4-22.78-6.07-10.26-2.78-13.7-8.82-10.94-19.09,4.2-15.67,8.46-31.32,12.54-47,3.24-12.47-1.87-23.59-13.31-29.51C120.76,95.5,113,94.5,102.65,94.33ZM245.84,234.67c24,.43,44.77-19.45,45.28-43.26.54-25-18.89-45.88-43.2-46.4-25.5-.54-46,19-46.44,44.31C201,213.79,221,234.21,245.84,234.67ZM75.38,218c-1.19,4.33-2.74,9.16-3.8,14.11a22.88,22.88,0,0,1-6.77,11.76c-15.71,15.53-31.29,31.2-46.91,46.84a27.91,27.91,0,0,0-3,3.3,13.06,13.06,0,0,0-1,14.78c3.17,5.82,6.31,7.7,12.88,6.34a21.11,21.11,0,0,0,10-5.06c16.37-15.94,32.44-32.18,48.53-48.4a12.16,12.16,0,0,0,2.91-5c2.62-9.23,5-18.52,7.48-27.8a8.92,8.92,0,0,0,.22-1.73Zm77.46-85.76c-1.74,6.38-3.32,11.83-4.63,17.35-.21.9.56,2.33,1.31,3.11,4.86,5,9.91,9.87,14.75,14.91,1.6,1.67,2.88,1.76,4.84.61,11.83-6.94,23.75-13.73,35.6-20.64,4.79-2.79,6.34-7.47,4-11.66-2.39-4.37-7.32-5.5-12.28-2.71-5.55,3.12-11,6.36-16.54,9.53-8.05,4.63-12.92,4-19.39-2.48C158.1,137.85,155.74,135.31,152.84,132.28Z"/><path class="cls-1" d="M139.59,0a41.23,41.23,0,0,1,41.24,42c-.29,22.39-19.21,40.89-41.59,40.66A41.34,41.34,0,0,1,139.59,0ZM110.26,41.18A29.29,29.29,0,1,0,139.6,12,29.28,29.28,0,0,0,110.26,41.18Z"/></g></g></svg>