<svg xmlns="http://www.w3.org/2000/svg" viewBox="0 0 383.03 384"><defs><style>.cls-1{fill:#fff;}</style></defs><title>empatia</title><g id="Capa_2" data-name="Capa 2"><g id="Capa_1-2" data-name="Capa 1"><path class="cls-1" d="M301,0c4.65.87,9.34,1.54,13.93,2.66a89.57,89.57,0,0,1,68,90.77c-1,23.35-9.46,43.57-26,60.07-13.14,13.12-19.7,28.53-19.05,47.11.28,8.1.05,16.22.05,24.61H247.92v-22.3c-3.15,0-6,0-8.77,0-22.18,0-36.36-14.2-36.39-36.28,0-5.12,1.28-10.81-.53-15.2s-6.75-7.49-10.34-11.13c-4-4-7.9-8-12-11.91-1.34-1.28-1.76-2.33-.94-4.16,11-24.47,21.23-49.32,33-73.4C226.26,21.75,250.2,5.12,282.42.65A13.16,13.16,0,0,0,284.5,0ZM270.4,202.66h45a56.4,56.4,0,0,1,0-5.84c.77-6.8,1.09-13.73,2.61-20.37,3.6-15.68,12.65-28.17,23.67-39.66,16.29-17,21.6-37.56,17.38-60.54-4.87-26.49-28.2-50.65-60-53.42-26.53-2.32-54.52,11-67.2,38.3-8.93,19.23-17.33,38.71-26,58.06a3.14,3.14,0,0,0,.81,4.18c5.29,5.13,10.38,10.48,15.71,15.57a8.35,8.35,0,0,1,2.91,6.83c-.21,7.36-.1,14.74-.06,22.11,0,7.8,4.5,12.36,12.29,12.42,9.5.08,19,0,28.49,0h4.32Z"/><path class="cls-1" d="M45.25,384c-.07-8.61-.37-17.23-.17-25.84.41-17.72-5.69-32.64-18.2-45.17C6.79,292.86-1.69,268.41.28,240.15,3,200.46,36.13,165.07,75.59,159.73c43.12-5.83,80.25,14.91,97.92,54.67,9.87,22.23,19.71,44.48,29.78,66.62,1.44,3.18,1,5-1.46,7.28-6.62,6.26-13,12.76-19.34,19.35a8.79,8.79,0,0,0-2.15,5.14c-.43,6.84.18,13.8-.82,20.54a33.16,33.16,0,0,1-32.21,28.1c-3.86.11-7.72,0-12.06,0V384Zm23-22.73h44.5V338.94c11.17,0,21.89,0,32.61,0,7.7,0,12.35-4.67,12.4-12.37,0-7.5.11-15-.05-22.49a7.61,7.61,0,0,1,2.52-6.21c6-5.79,11.87-11.78,17.77-17.68-.32-.89-.53-1.6-.83-2.27-8.43-18.91-16.57-38-25.37-56.69-11.84-25.21-32-38.73-59.83-39.95-42.05-1.83-75.28,35.95-68.67,77.51,2.46,15.49,9.49,28.45,20.58,39.43,11.39,11.26,19,24.76,22,40.51C67.22,346,67.43,353.55,68.2,361.27Z"/><path class="cls-1" d="M202.75,384V361.47H207c16.87,0,33.75,0,50.62,0,20.7,0,35.13-14.39,35.24-35.08.07-12,0-24,0-36.58l-10.8,11.72-16.16-16.3,38.47-38.35,38.42,38.37-16.12,16.08-10.24-11.68-1,.65c0,5.95.09,11.89,0,17.84-.18,9.61.43,19.35-.94,28.79-3.5,24.08-22.62,42.58-46.66,46.38a12.46,12.46,0,0,0-2.06.69Z"/><path class="cls-1" d="M38.1,100.31l15.62-15.6L65,96.74c.11-2.24.21-3.5.21-4.76,0-11-.07-22,0-33,.27-29,19.5-51.52,48.14-56.34a50,50,0,0,1,8.21-.55q26.63-.06,53.25,0c.86,0,1.73.11,2.85.19V24.61h-4.19c-16.75,0-33.5,0-50.25,0-21.09.05-35.32,14.16-35.45,35.18-.07,10.87,0,21.75,0,32.62,0,1.07.13,2.14.25,4L99.16,84.7l15.92,15.81L76.62,139Z"/></g></g></svg>