<svg xmlns="http://www.w3.org/2000/svg" viewBox="0 0 783.53 1054"><defs><style>.cls-1,.cls-2,.cls-3,.cls-4,.cls-5{fill:#fff;}.cls-1,.cls-6{fill-opacity:0.5;}.cls-2{fill-opacity:0.39;}.cls-3,.cls-8{fill-opacity:0.3;}.cls-4,.cls-9{fill-opacity:0.1;}.cls-10,.cls-5{fill-opacity:0.2;}.cls-10,.cls-6,.cls-7,.cls-8,.cls-9{fill:#f9f9f9;}.cls-7{fill-opacity:0.4;}</style></defs><title>Recurso 2</title><g id="Capa_2" data-name="Capa 2"><g id="Capa_1-2" data-name="Capa 1"><path class="cls-1" d="M727,269.9l54.36-96.56H727.53v-1.1h56L728.08,271Z"/><path class="cls-2" d="M563,269.9l54.36-96.56H563.53v-1.1h56L564.08,271Z"/><path class="cls-3" d="M399,269.9l54.36-96.56H399.53v-1.1h56L400.08,271Z"/><path class="cls-4" d="M72,269.9l54.36-96.56H72.53v-1.1h56L73.08,271Z"/><path class="cls-5" d="M225,269.9l54.36-96.56H225.53v-1.1h56L226.08,271Z"/><path class="cls-1" d="M722,416.9l54.36-96.56H722.53v-1.1h56L723.08,418Z"/><path class="cls-2" d="M558,416.9l54.36-96.56H558.53v-1.1h56L559.08,418Z"/><path class="cls-3" d="M394,416.9l54.36-96.56H394.53v-1.1h56L395.08,418Z"/><path class="cls-4" d="M67,416.9l54.36-96.56H67.53v-1.1h56L68.08,418Z"/><path class="cls-5" d="M220,416.9l54.36-96.56H220.53v-1.1h56L221.08,418Z"/><path class="cls-1" d="M727,575.9l54.36-96.56H727.53v-1.1h56L728.08,577Z"/><path class="cls-2" d="M563,575.9l54.36-96.56H563.53v-1.1h56L564.08,577Z"/><path class="cls-3" d="M399,575.9l54.36-96.56H399.53v-1.1h56L400.08,577Z"/><path class="cls-4" d="M72,575.9l54.36-96.56H72.53v-1.1h56L73.08,577Z"/><path class="cls-5" d="M225,575.9l54.36-96.56H225.53v-1.1h56L226.08,577Z"/><path class="cls-1" d="M727,734.9l54.36-96.56H727.53v-1.1h56L728.08,736Z"/><path class="cls-2" d="M563,734.9l54.36-96.56H563.53v-1.1h56L564.08,736Z"/><path class="cls-3" d="M399,734.9l54.36-96.56H399.53v-1.1h56L400.08,736Z"/><path class="cls-4" d="M72,734.9l54.36-96.56H72.53v-1.1h56L73.08,736Z"/><path class="cls-5" d="M225,734.9l54.36-96.56H225.53v-1.1h56L226.08,736Z"/><path class="cls-6" d="M715.45,257.28,660,158.52h56v1.1H662.74l53.81,96.57Z"/><path class="cls-7" d="M551.45,257.28,496,158.52h56v1.1H498.74l53.81,96.57Z"/><path class="cls-8" d="M387.45,257.28,332,158.52h56v1.1H334.74l53.81,96.57Z"/><path class="cls-9" d="M60.45,257.28,5,158.52H61v1.1H7.75l53.8,96.57Z"/><path class="cls-10" d="M213.45,257.28,158,158.52h56v1.1H160.74l53.81,96.57Z"/><path class="cls-6" d="M710.45,404.28,655,305.52h56v1.1H657.74l53.81,96.57Z"/><path class="cls-7" d="M546.45,404.28,491,305.52h56v1.1H493.74l53.81,96.57Z"/><path class="cls-8" d="M382.45,404.28,327,305.52h56v1.1H329.74l53.81,96.57Z"/><path class="cls-9" d="M55.45,404.28,0,305.52H56v1.1H2.75l53.8,96.57Z"/><path class="cls-10" d="M208.45,404.28,153,305.52h56v1.1H155.74l53.81,96.57Z"/><path class="cls-6" d="M715.45,563.28,660,464.52h56v1.1H662.74l53.81,96.57Z"/><path class="cls-7" d="M551.45,563.28,496,464.52h56v1.1H498.74l53.81,96.57Z"/><path class="cls-8" d="M387.45,563.28,332,464.52h56v1.1H334.74l53.81,96.57Z"/><path class="cls-9" d="M60.45,563.28,5,464.52H61v1.1H7.75l53.8,96.57Z"/><path class="cls-10" d="M213.45,563.28,158,464.52h56v1.1H160.74l53.81,96.57Z"/><path class="cls-6" d="M715.45,722.28,660,623.52h56v1.1H662.74l53.81,96.57Z"/><path class="cls-7" d="M551.45,722.28,496,623.52h56v1.1H498.74l53.81,96.57Z"/><path class="cls-8" d="M387.45,722.28,332,623.52h56v1.1H334.74l53.81,96.57Z"/><path class="cls-9" d="M60.45,722.28,5,623.52H61v1.1H7.75l53.8,96.57Z"/><path class="cls-10" d="M213.45,722.28,158,623.52h56v1.1H160.74l53.81,96.57Z"/><path class="cls-1" d="M727.53,147.55V147h56l-56,99.86-56-99.86h56v1.65h-53.8l53.8,95.47,53.26-95.47H727.53Z"/><path class="cls-2" d="M563.53,147.55V147h56l-56,99.86-56-99.86h56v1.65h-53.8l53.8,95.47,53.26-95.47H563.53Z"/><path class="cls-3" d="M399.53,147.55V147h56l-56,99.86-56-99.86h56v1.65h-53.8l53.8,95.47,53.26-95.47H399.53Z"/><path class="cls-4" d="M72.53,147.55V147h56l-56,99.86L16.53,147h56v1.65H18.73l53.8,95.47,53.26-95.47H72.53Z"/><path class="cls-5" d="M225.53,147.55V147h56l-56,99.86-56-99.86h56v1.65h-53.8l53.8,95.47,53.26-95.47H225.53Z"/><path class="cls-1" d="M727,122.9l54.36-96.56H727.53v-1.1h56L728.08,124Z"/><path class="cls-2" d="M563,122.9l54.36-96.56H563.53v-1.1h56L564.08,124Z"/><path class="cls-3" d="M399,122.9l54.36-96.56H399.53v-1.1h56L400.08,124Z"/><path class="cls-4" d="M72,122.9l54.36-96.56H72.53v-1.1h56L73.08,124Z"/><path class="cls-5" d="M225,122.9l54.36-96.56H225.53v-1.1h56L226.08,124Z"/><path class="cls-6" d="M715.45,110.28,660,11.52h56v1.1H662.74l53.81,96.57Z"/><path class="cls-7" d="M551.45,110.28,496,11.52h56v1.1H498.74l53.81,96.57Z"/><path class="cls-8" d="M387.45,110.28,332,11.52h56v1.1H334.74l53.81,96.57Z"/><path class="cls-9" d="M60.45,110.28,5,11.52H61v1.1H7.75l53.8,96.57Z"/><path class="cls-10" d="M213.45,110.28,158,11.52h56v1.1H160.74l53.81,96.57Z"/><path class="cls-1" d="M727.53.55V0h56l-56,99.86L671.53,0h56V1.65h-53.8l53.8,95.47L780.79,1.65H727.53Z"/><path class="cls-2" d="M563.53.55V0h56l-56,99.86L507.53,0h56V1.65h-53.8l53.8,95.47L616.79,1.65H563.53Z"/><path class="cls-3" d="M399.53.55V0h56l-56,99.86L343.53,0h56V1.65h-53.8l53.8,95.47L452.79,1.65H399.53Z"/><path class="cls-4" d="M72.53.55V0h56l-56,99.86L16.53,0h56V1.65H18.73l53.8,95.47L125.79,1.65H72.53Z"/><path class="cls-5" d="M225.53.55V0h56l-56,99.86L169.53,0h56V1.65h-53.8l53.8,95.47L278.79,1.65H225.53Z"/><path class="cls-1" d="M722.53,294.55V294h56l-56,99.86-56-99.86h56v1.65h-53.8l53.8,95.47,53.26-95.47H722.53Z"/><path class="cls-2" d="M558.53,294.55V294h56l-56,99.86-56-99.86h56v1.65h-53.8l53.8,95.47,53.26-95.47H558.53Z"/><path class="cls-3" d="M394.53,294.55V294h56l-56,99.86-56-99.86h56v1.65h-53.8l53.8,95.47,53.26-95.47H394.53Z"/><path class="cls-4" d="M67.53,294.55V294h56l-56,99.86L11.53,294h56v1.65H13.73l53.8,95.47,53.26-95.47H67.53Z"/><path class="cls-5" d="M220.53,294.55V294h56l-56,99.86-56-99.86h56v1.65h-53.8l53.8,95.47,53.26-95.47H220.53Z"/><path class="cls-1" d="M727.53,453.55V453h56l-56,99.86-56-99.86h56v1.65h-53.8l53.8,95.46,53.26-95.46H727.53Z"/><path class="cls-2" d="M563.53,453.55V453h56l-56,99.86-56-99.86h56v1.65h-53.8l53.8,95.46,53.26-95.46H563.53Z"/><path class="cls-3" d="M399.53,453.55V453h56l-56,99.86-56-99.86h56v1.65h-53.8l53.8,95.46,53.26-95.46H399.53Z"/><path class="cls-4" d="M72.53,453.55V453h56l-56,99.86L16.53,453h56v1.65H18.73l53.8,95.46,53.26-95.46H72.53Z"/><path class="cls-5" d="M225.53,453.55V453h56l-56,99.86-56-99.86h56v1.65h-53.8l53.8,95.46,53.26-95.46H225.53Z"/><path class="cls-1" d="M727.53,612.55V612h56l-56,99.86-56-99.86h56v1.65h-53.8l53.8,95.46,53.26-95.46H727.53Z"/><path class="cls-2" d="M563.53,612.55V612h56l-56,99.86-56-99.86h56v1.65h-53.8l53.8,95.46,53.26-95.46H563.53Z"/><path class="cls-3" d="M399.53,612.55V612h56l-56,99.86-56-99.86h56v1.65h-53.8l53.8,95.46,53.26-95.46H399.53Z"/><path class="cls-4" d="M72.53,612.55V612h56l-56,99.86L16.53,612h56v1.65H18.73l53.8,95.46,53.26-95.46H72.53Z"/><path class="cls-5" d="M225.53,612.55V612h56l-56,99.86-56-99.86h56v1.65h-53.8l53.8,95.46,53.26-95.46H225.53Z"/><path class="cls-1" d="M727,893.9l54.36-96.56H727.53v-1.1h56L728.08,895Z"/><path class="cls-2" d="M563,893.9l54.36-96.56H563.53v-1.1h56L564.08,895Z"/><path class="cls-3" d="M399,893.9l54.36-96.56H399.53v-1.1h56L400.08,895Z"/><path class="cls-4" d="M72,893.9l54.36-96.56H72.53v-1.1h56L73.08,895Z"/><path class="cls-5" d="M225,893.9l54.36-96.56H225.53v-1.1h56L226.08,895Z"/><path class="cls-1" d="M727,1052.9l54.36-96.56H727.53v-1.1h56L728.08,1054Z"/><path class="cls-2" d="M563,1052.9l54.36-96.56H563.53v-1.1h56L564.08,1054Z"/><path class="cls-3" d="M399,1052.9l54.36-96.56H399.53v-1.1h56L400.08,1054Z"/><path class="cls-4" d="M72,1052.9l54.36-96.56H72.53v-1.1h56L73.08,1054Z"/><path class="cls-5" d="M225,1052.9l54.36-96.56H225.53v-1.1h56L226.08,1054Z"/><path class="cls-6" d="M715.45,881.28,660,782.52h56v1.1H662.74l53.81,96.57Z"/><path class="cls-7" d="M551.45,881.28,496,782.52h56v1.1H498.74l53.81,96.57Z"/><path class="cls-8" d="M387.45,881.28,332,782.52h56v1.1H334.74l53.81,96.57Z"/><path class="cls-9" d="M60.45,881.28,5,782.52H61v1.1H7.75l53.8,96.57Z"/><path class="cls-10" d="M213.45,881.28,158,782.52h56v1.1H160.74l53.81,96.57Z"/><path class="cls-6" d="M715.45,1040.28,660,941.52h56v1.1H662.74l53.81,96.57Z"/><path class="cls-7" d="M551.45,1040.28,496,941.52h56v1.1H498.74l53.81,96.57Z"/><path class="cls-8" d="M387.45,1040.28,332,941.52h56v1.1H334.74l53.81,96.57Z"/><path class="cls-9" d="M60.45,1040.28,5,941.52H61v1.1H7.75l53.8,96.57Z"/><path class="cls-10" d="M213.45,1040.28,158,941.52h56v1.1H160.74l53.81,96.57Z"/><path class="cls-1" d="M727.53,771.55V771h56l-56,99.86-56-99.86h56v1.65h-53.8l53.8,95.46,53.26-95.46H727.53Z"/><path class="cls-2" d="M563.53,771.55V771h56l-56,99.86-56-99.86h56v1.65h-53.8l53.8,95.46,53.26-95.46H563.53Z"/><path class="cls-3" d="M399.53,771.55V771h56l-56,99.86-56-99.86h56v1.65h-53.8l53.8,95.46,53.26-95.46H399.53Z"/><path class="cls-4" d="M72.53,771.55V771h56l-56,99.86L16.53,771h56v1.65H18.73l53.8,95.46,53.26-95.46H72.53Z"/><path class="cls-5" d="M225.53,771.55V771h56l-56,99.86-56-99.86h56v1.65h-53.8l53.8,95.46,53.26-95.46H225.53Z"/><path class="cls-1" d="M727.53,930.55V930h56l-56,99.86-56-99.86h56v1.65h-53.8l53.8,95.46,53.26-95.46H727.53Z"/><path class="cls-2" d="M563.53,930.55V930h56l-56,99.86-56-99.86h56v1.65h-53.8l53.8,95.46,53.26-95.46H563.53Z"/><path class="cls-3" d="M399.53,930.55V930h56l-56,99.86-56-99.86h56v1.65h-53.8l53.8,95.46,53.26-95.46H399.53Z"/><path class="cls-4" d="M72.53,930.55V930h56l-56,99.86L16.53,930h56v1.65H18.73l53.8,95.46,53.26-95.46H72.53Z"/><path class="cls-5" d="M225.53,930.55V930h56l-56,99.86-56-99.86h56v1.65h-53.8l53.8,95.46,53.26-95.46H225.53Z"/></g></g></svg>