<svg xmlns="http://www.w3.org/2000/svg" viewBox="0 0 360.13 360"><defs><style>.cls-1{fill:#fff;}</style></defs><title>responsabilidad</title><g id="Capa_2" data-name="Capa 2"><g id="Capa_1-2" data-name="Capa 1"><path class="cls-1" d="M85.11,351c-5.63,2.95-10.36,6.58-15.67,8-17.17,4.59-33.24-8.28-33.28-26.21-.09-34.5,0-69,0-103.49v-4.54c-5.75,2.65-11.28,4-17.3,2.62C8.23,224.86.28,215.74.21,204.86c-.17-23.74-.4-47.5.06-71.24C.71,110.25,21,90.35,44.42,90.09q39.74-.44,79.49,0c23.55.26,43.71,20.33,44.1,44s.28,47.25,0,70.87c-.16,15.52-16.78,26-32,20.48-1.15-.42-2.28-.92-4-1.6v4.28c0,34.87.05,69.74,0,104.61,0,16-12.75,28.14-28.44,27.21A26.16,26.16,0,0,1,85.11,351ZM60,102c-4.71,0-9.19,0-13.67,0C27,102.2,12.21,117,12.15,136.3c-.08,22.13,0,44.25,0,66.37,0,7.74,4.86,13.22,11.72,13.32s12.21-5.86,12.26-13.42,0-15.24,0-22.87c0-5.87-.09-11.75,0-17.62A5.88,5.88,0,0,1,42.05,156c3.27-.05,5.76,2.35,6,5.89.1,1.25,0,2.5,0,3.75q0,83.06,0,166.11c0,4.61,1.08,8.68,4.48,11.87,4.73,4.44,10.24,5.55,16.29,3.2,5.83-2.27,9.24-7.66,9.25-14.52q0-47.43,0-94.86c0-1.13,0-2.26,0-3.38.24-3.58,2.62-6,5.89-6.06s5.76,2.34,6,5.88c.1,1.12,0,2.25,0,3.38q0,47.43,0,94.86c0,7.37,3.8,12.94,10.12,15.05,10.22,3.41,19.86-3.94,19.86-15.24q0-83.23,0-166.48c0-1.25-.07-2.51.05-3.75a6,6,0,0,1,11.89-.2,24.79,24.79,0,0,1,.06,3c0,12.75-.08,25.5,0,38.25a11.77,11.77,0,0,0,12.22,12c7.48-.09,11.73-4.41,11.73-12q0-33.37,0-66.74a33.23,33.23,0,0,0-10.93-25c-10.65-10-23.72-9.52-36.89-8.73-.88,7.75-2.72,12.52-7.17,16.69a5.63,5.63,0,0,0-1.8,5.92q4,21,7.76,42a22.49,22.49,0,0,1-2,14.57q-7.47,14.9-14.78,29.87C89,214,87.4,216.23,84,216.16c-3.26-.08-4.73-2.24-6-4.85q-7.23-14.81-14.63-29.52a23.94,23.94,0,0,1-2-15.66q3.94-21,7.63-42c.24-1.36-.07-3.41-1-4.29A26.41,26.41,0,0,1,60,102Zm24.09,94.45c3.58-7.24,7-13.49,9.74-20a17.38,17.38,0,0,0,1.13-8.6c-.81-6.54-2.23-13-3.43-19.5Q89.5,137.2,87.39,126H81.1a8.89,8.89,0,0,0-.57,1.46c-2.52,13.6-5.07,27.2-7.46,40.82a10.64,10.64,0,0,0,.26,5.86C76.59,181.41,80.21,188.48,84.11,196.45ZM72.43,102.16A11.61,11.61,0,0,0,83.89,114c6,.16,12.36-5,12-11.81Z"/><path class="cls-1" d="M282.5,0h69.38c6.38,0,8.25,1.87,8.25,8.25v91.5c0,6.37-1.88,8.25-8.26,8.25H212.37c-6.37,0-8.24-1.87-8.24-8.26V8.25C204.13,1.86,206,0,212.38,0Zm65.36,95.83V12.3H216.33V95.83Z"/><path class="cls-1" d="M282.12,234H212.37c-6.37,0-8.24-1.87-8.24-8.26v-91.5c0-6.38,1.86-8.24,8.25-8.24h139.5c6.38,0,8.25,1.87,8.25,8.25v91.5c0,6.37-1.88,8.25-8.26,8.25ZM348,138.27H216.43V221.8H348Z"/><path class="cls-1" d="M282.12,360H212.38c-6.38,0-8.25-1.87-8.25-8.26V260.25c0-6.39,1.86-8.25,8.25-8.25h139.5c6.38,0,8.25,1.87,8.25,8.25v91.5c0,6.37-1.88,8.25-8.26,8.25ZM216.3,347.74H347.83V264.2H216.3Z"/><path class="cls-1" d="M42.14,42A42,42,0,1,1,84.38,84,42,42,0,0,1,42.14,42Zm42-30a30,30,0,1,0,30,29.69A30.05,30.05,0,0,0,84.1,12Z"/><path class="cls-1" d="M279.56,67.67c1.58-4.14,2.83-7.35,4.05-10.58,3.46-9.21,6.89-18.43,10.38-27.63,1.73-4.55,4.64-6.27,8.14-4.94s4.79,4.63,3.15,9Q296.79,56.27,288.2,79c-2.21,5.81-6.78,6.72-11.3,2.3q-8.14-8-16.19-16.11c-3.12-3.14-3.41-6.6-.88-9.22s6.07-2.56,9.22.59C272.48,60,275.73,63.6,279.56,67.67Z"/><path class="cls-1" d="M279.58,193.76c3.61-9.63,6.85-18.24,10.08-26.84,1.53-4.09,3-8.2,4.6-12.25,1.54-3.88,4.65-5.42,7.95-4.12s4.7,4.46,3.26,8.33q-8.62,23.3-17.42,46.54c-2,5.21-6.63,6.21-10.65,2.33-5.75-5.54-11.38-11.21-17-16.89-2.9-2.94-3-6.43-.52-9s6-2.52,8.94.45C272.35,185.86,275.65,189.58,279.58,193.76Z"/><path class="cls-1" d="M279.6,319.67c3.57-9.48,6.78-18,10-26.46,1.58-4.2,3.06-8.44,4.72-12.6,1.54-3.86,4.7-5.37,8-4s4.62,4.48,3.18,8.37C299.69,300.48,293.92,316,288,331.49c-2,5.17-6.65,6.11-10.68,2.21-5.74-5.55-11.38-11.2-17-16.89-2.88-2.93-3-6.45-.42-8.95s5.94-2.43,8.95.54C272.4,311.88,275.71,315.56,279.6,319.67Z"/></g></g></svg>