<svg xmlns="http://www.w3.org/2000/svg" xmlns:xlink="http://www.w3.org/1999/xlink" viewBox="0 0 86.15 86.32"><defs><style>.cls-1{fill:#ffc767;}.cls-2{fill:url(#Degradado_sin_nombre_2);}.cls-3{fill:url(#Degradado_sin_nombre_2-2);}</style><linearGradient id="Degradado_sin_nombre_2" x1="-680.98" y1="40.41" x2="-680.81" y2="40.41" gradientTransform="matrix(0, -401.43, -401.43, 0, 16242.97, -273290.12)" gradientUnits="userSpaceOnUse"><stop offset="0" stop-color="#f49d1d"/><stop offset="0.21" stop-color="#f9b843"/><stop offset="0.41" stop-color="#fdcf63"/><stop offset="0.53" stop-color="#ffd86f"/><stop offset="0.62" stop-color="#fed369"/><stop offset="0.75" stop-color="#fac357"/><stop offset="0.9" stop-color="#f3ab39"/><stop offset="1" stop-color="#ee9621"/></linearGradient><linearGradient id="Degradado_sin_nombre_2-2" x1="-681.03" y1="39.27" x2="-680.86" y2="39.27" gradientTransform="translate(-15931.47 -277039.21) rotate(-90) scale(406.9)" xlink:href="#Degradado_sin_nombre_2"/></defs><title>simboloVoyant</title><g id="Capa_2" data-name="Capa 2"><g id="Capa_1-2" data-name="Capa 1"><polygon class="cls-1" points="46.63 85.82 84.39 18.44 47.08 18.44 47.08 17.41 86.15 17.41 47.53 86.32 46.63 85.82 46.63 85.82"/><polygon class="cls-2" points="38.62 76.76 0 7.84 39.07 7.84 39.07 8.88 1.76 8.88 39.52 76.25 38.62 76.76 38.62 76.76"/><polygon class="cls-3" points="46.99 0.52 46.99 0 86.06 0 46.99 69.72 7.92 0 46.99 0 46.99 0.52 46.99 1.03 9.69 1.03 46.99 67.61 84.3 1.03 46.99 1.03 46.99 0.52"/></g></g></svg>