<svg xmlns="http://www.w3.org/2000/svg" viewBox="0 0 348.02 384"><defs><style>.cls-1{fill:#fff;}</style></defs><title>aprendizaje</title><g id="Capa_2" data-name="Capa 2"><g id="Capa_1-2" data-name="Capa 1"><path class="cls-1" d="M30.05,384a73.61,73.61,0,0,1-8.49-2.71C8,375.16.72,364.57.17,349.69c-.33-8.74-.08-17.5-.08-26.25v-168c0-10.65,4.62-15.23,15.33-15.24H36.11c.17-1.5.28-2.73.45-4,.8-5.82,5.24-10.14,11.13-10.19,15-.14,30-.1,45,0,3.71,0,6.15,2.5,6.07,5.74s-2.53,5.46-6.34,5.47c-13.37.06-26.74,0-40.12,0H48V311.34h5.28c11.5,0,23,0,34.5,0,3,0,5.52.77,6.67,3.77,1.5,3.93-1.38,7.45-6.15,7.47-12,.06-24,0-36,0H47.83c0,7.57-.1,14.77.12,22,0,.9,1.63,1.9,2.67,2.59.54.35,1.47.11,2.21.11H165c1,0,2-.1,3-.15-1-11.27-11.61-22.36-23.8-23.75-8.65-1-17.46-.55-26.19-.74-1.63,0-3.25,0-4.87-.05-3.25-.19-5.14-2.07-5.35-5.19s1.62-5.79,4.66-5.77c12,.06,24,.07,35.86,1.15,7.84.71,14.26,5.52,20.59,11.45V254.65c0-.87,0-1.75,0-2.62.16-3.77,2.37-6.12,5.67-6.09s5.53,2.38,5.55,6.2c.06,10.88,0,21.75,0,32.63v39.16c1.15-.92,1.89-1.46,2.58-2.06a41.69,41.69,0,0,1,28.13-10.52h90.42V233.89a35.85,35.85,0,0,1,.09-3.74c.36-3.4,2.46-5.37,5.59-5.34s5.15,2,5.52,5.44a27.26,27.26,0,0,1,.08,3q0,54.18,0,108.37c0,11.49-5.48,16.88-17.06,16.88H53.16c-11.27,0-16.76-5.48-16.76-16.81q0-92.25,0-184.49v-5.71c-7.83,0-15.41-.05-23,.1-.69,0-1.62,1.22-2,2.06a8.62,8.62,0,0,0-.09,3V346.36c0,17,9.37,26.39,26.45,26.39H310.41c17,0,26.34-9.36,26.34-26.5V156.52c0-5,0-5.05-5.15-5.05H312.46v4.72q0,23.43,0,46.87a25.56,25.56,0,0,1-.21,4.11,5.51,5.51,0,0,1-10.88,0,28.09,28.09,0,0,1-.19-4.11q0-30.37,0-60.74v-5h-4.25c-13.25,0-26.5,0-39.75,0-2.82,0-5.25-.57-6.54-3.34a5.49,5.49,0,0,1,5.14-7.89c15.25-.13,30.5-.16,45.75,0,5.67.07,10,4.46,10.76,10.17.17,1.22.29,2.45.46,4,7.22,0,14.33,0,21.43,0,8.63,0,13.81,5.12,13.82,13.73q0,97.31,0,194.61c0,17.73-11.35,31.34-28.61,34.84a6.51,6.51,0,0,0-1.33.59ZM181,347.07c1,.06,2,.17,2.92.17H296c.62,0,1.43.24,1.84-.07,1.17-.87,3.07-1.93,3.11-3,.28-7.07.15-14.15.15-21.38-1.42-.09-2.39-.22-3.36-.22q-43.5,0-87,0a37.76,37.76,0,0,0-6.7.67C192.35,325.43,182,336.06,181,347.07Z"/><path class="cls-1" d="M182.3,0c4.49,1,9,1.73,13.45,2.94C248.3,17.4,271.58,78.7,242,124.44q-17.41,26.88-34.61,53.91a13.29,13.29,0,0,0-1.92,6.57c-.13,5.88-1.77,10.75-6.92,14.14a4.46,4.46,0,0,0-1.46,3.05c-.25,3,0,6-.29,9a17.68,17.68,0,0,1-17.09,16.3c-3.36.17-6.75.17-10.12,0-9.64-.43-16.61-7.1-17.55-16.67a24.61,24.61,0,0,1-.12-3.74c.22-4,.13-7.52-4-10.23-3.76-2.44-4.13-7.07-4.42-11.45a16.13,16.13,0,0,0-2.13-7.26c-11.42-18.05-23.37-35.76-34.43-54-4.46-7.38-7.21-15.81-10.49-23.86-1.15-2.82-.78-5.75,2.21-7.58a5.39,5.39,0,0,1,8.23,3.54c2.65,11.45,8.78,21.1,15.08,30.74,9.9,15.16,19.52,30.51,29.46,45.64,2.44,3.72,3.91,7.4,3.49,11.87a21.44,21.44,0,0,0,.64,4.78l1.57-.16c-1.15-19.88-2.3-39.76-3.48-60.13-2.58,0-4.93.13-7.25,0a16.69,16.69,0,0,1-15.78-15.68c-.43-9.1,5.25-16.63,13.57-18,8.79-1.41,16.86,3.53,19,12,.82,3.24.88,6.66,1.31,10.24h19.34c.21-2.2.45-4.4.63-6.6.79-9.47,7.92-16.13,17-15.87a17,17,0,0,1,0,33.93c-2.12.1-4.23,0-6.82,0-1.19,20.32-2.37,40.42-3.55,60.51l1.4.42c.55-1.39,1.72-2.85,1.56-4.15-.71-5.91,1.81-10.51,4.9-15.22,11.36-17.34,22.45-34.86,33.69-52.28,27.72-42.92,1-100.07-49.63-106.31a69.06,69.06,0,0,0-77.21,60.37c-.08.62-.16,1.24-.3,1.85-.82,3.5-3.22,5.27-6.45,4.8-3-.45-5.2-2.81-4.5-6.21,1.64-7.9,2.78-16.15,6-23.44,12.24-27.89,33.81-44.08,64-48.57A14.33,14.33,0,0,0,166.55,0ZM164.86,129c1.2,20.42,2.38,40.45,3.55,60.43H179.7c1.18-20.26,2.35-40.26,3.53-60.43Zm-1.38,72.08c-1,8.62-.2,12.19,3.08,14.12,2.7,1.59,14.17,1.43,16.33-.42,4.49-3.83,2.28-8.92,2.87-13.7ZM153,117.6c-.19-2.31-.29-4.15-.49-6-.4-3.53-2.33-5.42-5.4-5.38a5.25,5.25,0,0,0-5.27,5.15,5.44,5.44,0,0,0,5.05,6.16A60.67,60.67,0,0,0,153,117.6Zm42.2.17c2.82-.21,5.34,0,7.61-.67,3.12-.88,4-3.56,3.43-6.53a5.3,5.3,0,0,0-10.47.42C195.46,113.05,195.37,115.12,195.15,117.77Z"/><path class="cls-1" d="M104.84,257.16c-9.87,0-19.74,0-29.61,0-4.68,0-7.18-2.1-7.1-5.8s2.41-5.43,7-5.43q29.79,0,59.59,0c4.37,0,7,2.12,7,5.53s-2.59,5.67-6.92,5.69C124.83,257.18,114.83,257.16,104.84,257.16Z"/><path class="cls-1" d="M244.08,245.91c9.87,0,19.74,0,29.61,0,4.59,0,6.94,1.86,7,5.42s-2.42,5.81-7.08,5.82q-29.8,0-59.6,0c-5.48,0-8.83-4.62-6-8.41a8.2,8.2,0,0,1,5.65-2.7C223.83,245.77,234,245.91,244.08,245.91Z"/><path class="cls-1" d="M104.68,229.63c-9.87,0-19.74,0-29.61,0-4.56,0-6.9-1.93-6.94-5.51s2.39-5.74,6.8-5.75q30-.06,60,0c4.28,0,6.9,2.34,6.83,5.79s-2.64,5.46-7.06,5.47C124.67,229.66,114.68,229.63,104.68,229.63Z"/><path class="cls-1" d="M243.94,229.63c-9.87,0-19.75,0-29.62,0-4.61,0-7.3-2.2-7.21-5.72s2.69-5.54,7.07-5.55q29.81,0,59.6,0c4.44,0,6.91,2.09,7,5.61s-2.34,5.63-6.81,5.65C263.93,229.66,253.93,229.63,243.94,229.63Z"/><path class="cls-1" d="M104.92,284.5c-10.11,0-20.23,0-30.35,0-4.71,0-7.39-3.12-6.24-7.08,1-3.57,3.91-4.15,7.11-4.15q18.36,0,36.72,0c7.5,0,15,0,22.48,0,4.43,0,7,2.11,7.09,5.53s-2.57,5.67-7.21,5.69C124.66,284.52,114.79,284.5,104.92,284.5Z"/><path class="cls-1" d="M243.93,284.5c-9.87,0-19.74,0-29.61,0-4.64,0-7.3-2.16-7.2-5.69s2.66-5.52,7.09-5.53q29.78-.06,59.57,0c4.52,0,6.9,2,6.94,5.6s-2.28,5.59-6.82,5.61C263.91,284.53,253.92,284.5,243.93,284.5Z"/><path class="cls-1" d="M91.4,189.75c8.74,0,17.49,0,26.23,0,4.35,0,6.92,2.16,6.91,5.63S122,201,117.62,201q-26.43,0-52.84,0c-4.35,0-6.94-2.16-6.94-5.61s2.61-5.6,7-5.62C73.66,189.73,82.53,189.75,91.4,189.75Z"/><path class="cls-1" d="M257.42,201c-8.74,0-17.48,0-26.23,0-4.34,0-6.9-2.15-6.88-5.63s2.58-5.59,6.94-5.6q26.43,0,52.84,0c4.32,0,6.93,2.21,6.91,5.66s-2.61,5.56-7,5.57C275.16,201,266.29,201,257.42,201Z"/><path class="cls-1" d="M291.82,26.14c-1.38,2.06-2.17,3.8-3.44,5-3.54,3.34-7.23,6.52-10.95,9.66-3.11,2.64-6.38,2.54-8.6-.08-2-2.43-1.66-5.77,1.12-8.28a145.12,145.12,0,0,1,11.62-10,7.79,7.79,0,0,1,6.14-.94C289.32,22,290.34,24.36,291.82,26.14Z"/><path class="cls-1" d="M62.87,20.09c2.06,1.06,3.64,1.56,4.82,2.54,3.84,3.18,7.58,6.49,11.27,9.86,2.76,2.53,3.09,5.89,1,8.29s-5.39,2.68-8.32.22A132.62,132.62,0,0,1,60,30.51a8,8,0,0,1-1.39-6.29C58.94,22.64,61.28,21.52,62.87,20.09Z"/><path class="cls-1" d="M82,72.33c-1.22,2-1.86,3.65-3,4.77-3.63,3.43-7.42,6.69-11.23,9.92-3,2.58-6.44,2.43-8.61-.2s-1.74-5.56,1.21-8.23A144.53,144.53,0,0,1,72.29,68.35c1.47-1.06,4.32-1.15,6.12-.51C79.89,68.37,80.75,70.64,82,72.33Z"/><path class="cls-1" d="M291.51,83.68c-1.06,1.41-1.89,3.62-3.4,4.26-1.66.72-4.51.78-5.84-.21A142.47,142.47,0,0,1,269,76.21c-2.1-2-2.08-4.85-.19-7.18s4.63-3.18,7-1.3c4.88,3.86,9.46,8.12,14.06,12.33C290.58,80.75,290.77,82,291.51,83.68Z"/></g></g></svg>