<svg xmlns="http://www.w3.org/2000/svg" viewBox="0 0 310.75 272.45"><defs><style>.cls-1{fill:#fff;}</style></defs><title>humildad</title><g id="Capa_2" data-name="Capa 2"><g id="Capa_1-2" data-name="Capa 1"><path class="cls-1" d="M129.71,117.75c-23.25-20.88-16.83-49-3.18-62.14a41.15,41.15,0,0,1,56.4-1.11,39.86,39.86,0,0,1,13.55,31.93c-.36,12.69-6,22.83-15.88,31.37,9.4,1.32,18.2,2.42,26.94,3.83,4.79.77,9.72,1.51,14.2,3.25,10.55,4.07,17.4,12,20.65,22.74Q253,182.8,263.21,218.07c3.86,13.36-5,25.41-18.85,26-5.72.23-11.47.07-17.2.09h-4.33c0,4.8,0,9.15,0,13.51-.09,9.05-5.87,14.8-15,14.8q-52.55,0-105.08,0c-9.06,0-14.78-5.78-14.85-14.9,0-4.26,0-8.53,0-13.41H80.22c-4.76,0-9.53.11-14.28-.12-13-.62-22.18-12.46-18.64-25,6.93-24.49,14.05-48.95,21.81-73.19,4.41-13.76,14.93-21.31,29.13-23.51,9.39-1.45,18.84-2.61,28.25-3.92C127.52,118.27,128.54,118,129.71,117.75Zm76,116.73c12.57,0,25.14.05,37.71,0,8,0,12.83-6.16,10.62-13.74-6.92-23.74-13.87-47.47-21.17-71.1-2.87-9.3-9.6-15.1-19.18-17.25-3.33-.74-6.73-1.15-10.1-1.67-17.25-2.7-34.6-5.33-52.06-4.26-17,1-33.94,3.4-50.89,5.31-12.06,1.36-19.93,8-23.4,19.6Q66.94,185.66,56.92,220c-2.43,8.3,2.16,14.41,10.81,14.43q37.53.06,75.06,0c5.48,0,7.68-2.24,7.75-7.83.07-4.88,0-9.76.05-14.64.07-3.73,1.82-5.66,4.81-5.64s4.71,1.95,4.78,5.68c.1,4.75,0,9.51,0,14.27.06,6,2.17,8.16,8.16,8.17Q187,234.51,205.72,234.48ZM155.21,116.55a31.56,31.56,0,1,0-31.37-31.79A31.44,31.44,0,0,0,155.21,116.55ZM98,244.12a5.54,5.54,0,0,0-.41,1.14c0,3.54-.06,7.07-.06,10.61,0,5.9,1.12,7,7,7H206.24c1,0,2.15.31,2.88-.12,1.46-.87,3.71-2.06,3.81-3.27.43-5,.18-10.09.18-15.38-14,0-27.48-.05-41,0-6,0-12,.21-16.71-4.72-4.3,4.19-9.28,4.77-14.54,4.73C126.6,244.05,112.35,244.12,98,244.12Z"/><path class="cls-1" d="M160.19,13.25c0,2.67.06,5.35,0,8-.07,3.07-1.42,5.17-4.73,5.34-2.82.15-4.75-1.84-4.84-5.2-.13-5.34-.09-10.69,0-16,0-3.06,1.43-5.17,4.72-5.36,2.78-.16,4.69,1.89,4.86,5.21C160.3,7.89,160.19,10.57,160.19,13.25Z"/><path class="cls-1" d="M94.9,15.88c.66.63,2.55,1.64,3.16,3.17,2.14,5.29,3.9,10.74,5.67,16.17,1,2.93-.3,5.09-3.11,6.07s-4.88-.38-5.84-2.94c-2-5.46-4-11-5.69-16.55C88.12,18.65,90.48,15.85,94.9,15.88Z"/><path class="cls-1" d="M222.34,19.75c-.67,2.09-1,3.37-1.47,4.63-1.58,4.6-3.07,9.23-4.8,13.78-1,2.71-3.14,4.17-6.08,3.08s-3.9-3.25-2.92-6.17q2.66-8,5.48-15.86c1-2.67,3.1-4.06,5.73-3.08C219.93,16.75,221.11,18.61,222.34,19.75Z"/><path class="cls-1" d="M62.15,65.16c.18,4.32-4,7.06-7.1,4.84-5-3.6-9.81-7.6-14.46-11.69a3.85,3.85,0,0,1,0-6.12c1.41-1.07,4.52-1.75,5.73-.93,5.1,3.49,9.81,7.56,14.57,11.54A6.37,6.37,0,0,1,62.15,65.16Z"/><path class="cls-1" d="M272.1,55c-1.08,1.65-1.69,3.19-2.8,4.14-4.05,3.48-8.24,6.82-12.46,10.11-2.63,2-5.37,1.84-7.14-.31s-1.52-4.89,1.05-7c4.2-3.5,8.38-7.06,12.85-10.2a6.74,6.74,0,0,1,5.31-.57C270.18,51.58,270.94,53.54,272.1,55Z"/><path class="cls-1" d="M26.75,175.05c-6.85-.45-11.59-.66-16.31-1.1-3.85-.36-5.68-2.44-5.26-5.54.39-2.85,2.59-4.24,6.28-4l13.83,1c4.57.31,6.58,2,6.38,5.19A4.41,4.41,0,0,1,26.75,175.05Z"/><path class="cls-1" d="M286.3,175a16.31,16.31,0,0,1-3.28,0,4.45,4.45,0,0,1-3.92-4.55c-.07-2.55,1.26-4.45,3.67-4.71,6-.65,12.11-1,18.18-1.26a4.26,4.26,0,0,1,4.63,4.22c.25,2.87-1.19,4.8-4,5.11C296.49,174.3,291.39,174.56,286.3,175Z"/><path class="cls-1" d="M20.14,108c2.19.64,3.47,1,4.73,1.39q6.75,2.25,13.47,4.56c3,1,4.4,3.17,3.44,6.23s-3.34,3.79-6.15,2.9a167.75,167.75,0,0,1-16.17-5.6c-1.49-.65-3-3.43-2.84-5.09S19,109.28,20.14,108Z"/><path class="cls-1" d="M294.43,114.47c-.81.74-2,2.59-3.67,3.26-4.95,2-10.07,3.57-15.16,5.21-2.89.92-5.4.41-6.62-2.7-1.09-2.79.32-5.24,3.69-6.42,5-1.78,10.1-3.51,15.21-5.1C291.41,107.63,294.6,110,294.43,114.47Z"/><path class="cls-1" d="M13.32,230.5c-2.67,0-5.35.07-8,0-3-.09-5.16-1.41-5.29-4.75C-.11,222.83,1.78,221,5.2,221c5.34-.12,10.69-.12,16-.07,3.07,0,5.25,1.35,5.29,4.7s-2.16,4.72-5.18,4.87C18.67,230.6,16,230.49,13.32,230.5Z"/><path class="cls-1" d="M297.85,221c2.67,0,5.34-.06,8,0,3,.09,4.85,1.59,4.89,4.7a4.32,4.32,0,0,1-4.5,4.73c-5.82.2-11.67.19-17.49,0a4.34,4.34,0,0,1-4.52-4.72c0-3.13,1.91-4.62,4.86-4.74s5.83,0,8.75,0Z"/><path class="cls-1" d="M97.32,202.78c9.45,1,18.41,1.93,27.38,2.82,2.85.28,4.49-1.34,5.67-3.74,3.39-6.89,6.94-13.7,10.25-20.62,2.44-5.09,6.39-6.94,11.92-7.49,10-1,16.54,2.5,20.07,12.21a101.32,101.32,0,0,0,8,16c.94,1.63,3.3,3.58,4.9,3.49,9.21-.56,18.4-1.69,27.94-2.65L203.37,175a23.75,23.75,0,0,1-1-2.75c-.64-2.85.06-5.18,3.06-6.13,2.77-.89,4.79.3,5.9,2.89.91,2.12,1.65,4.32,2.44,6.49q5.13,14.09,10.23,28.16c1.89,5.23.49,7.57-5.09,8.19-10.66,1.18-21.33,2.34-32,3.27-6.62.58-11.6-2.31-14.65-8.23-3.46-6.72-6.9-13.45-10.12-20.28-1.1-2.33-2.53-2.94-5-3.24-5.13-.62-8,1.15-10,6-2.47,6.08-5.7,11.86-8.75,17.69s-7.95,8.61-14.4,8c-10.93-.93-21.84-2.14-32.75-3.34-4.82-.53-6.33-3-4.69-7.6q6.12-17,12.38-34c1.38-3.76,3.64-5.1,6.55-4s3.76,3.55,2.41,7.31C104.48,183.08,101,192.68,97.32,202.78Z"/></g></g></svg>