<svg xmlns="http://www.w3.org/2000/svg" xmlns:xlink="http://www.w3.org/1999/xlink" viewBox="0 0 332.34 86.65"><defs><style>.cls-1{fill:#f9b03a;}.cls-2{fill:#ffc866;}.cls-3{fill:url(#Degradado_sin_nombre_19);}.cls-4{fill:url(#Degradado_sin_nombre_19-2);}</style><linearGradient id="Degradado_sin_nombre_19" x1="-3000.7" y1="1605.51" x2="-3000.53" y2="1605.51" gradientTransform="matrix(0, -401.43, -401.43, 0, 644519.12, -1204491.11)" gradientUnits="userSpaceOnUse"><stop offset="0" stop-color="#f69e1b"/><stop offset="0.21" stop-color="#faba43"/><stop offset="0.42" stop-color="#fed063"/><stop offset="0.53" stop-color="#ffd96f"/><stop offset="0.62" stop-color="#fed469"/><stop offset="0.75" stop-color="#fac557"/><stop offset="0.89" stop-color="#f4ad39"/><stop offset="1" stop-color="#ef971f"/></linearGradient><linearGradient id="Degradado_sin_nombre_19-2" x1="-3000.8" y1="1615.87" x2="-3000.63" y2="1615.87" gradientTransform="translate(-657442.94 -1220943.5) rotate(-90) scale(406.9)" xlink:href="#Degradado_sin_nombre_19"/></defs><title>logoVoyant</title><g id="Capa_2" data-name="Capa 2"><g id="Capa_1-2" data-name="Capa 1"><path className="cls-1" d="M175.48,62.58A20.75,20.75,0,0,1,160,56.19a21.72,21.72,0,0,1-6.21-15.31,21.36,21.36,0,0,1,2.93-11.05,20.87,20.87,0,0,1,7.91-7.94A21.43,21.43,0,0,1,175.48,19a20.69,20.69,0,0,1,15.11,6.38A21.38,21.38,0,0,1,197,40.88a21.22,21.22,0,0,1-21.52,21.7m0-7.56A12.85,12.85,0,0,0,185,51,13.46,13.46,0,0,0,189,40.88,14.06,14.06,0,0,0,185,30.79a13.58,13.58,0,0,0-19.37,0,13.86,13.86,0,0,0-3.88,10.09A13.75,13.75,0,0,0,175.48,55"/><path className="cls-1" d="M216.76,61.68h-7.94v-18l-12.2-23.46h8.53l1.55,2.9,10.06,19.79Zm0-18.8-4.27-8.12,8.15-14.57H229Z"/><polygon className="cls-1" points="263.98 61.62 255.63 61.62 252.52 53.08 235.48 53.08 231.99 61.62 223.84 61.62 239.93 19.92 247.9 19.92 248.07 20.52 244.01 31 238.37 45.32 249.63 45.32 246.91 38.55 251 28.07 263.98 61.62"/><polygon className="cls-1" points="303.29 61.62 295.71 61.62 277.68 34.28 277.68 61.62 269.95 61.62 269.95 19.92 277.5 19.92 295.32 47.47 295.32 19.92 303.29 19.92 303.29 61.62"/><polygon className="cls-1" points="324.75 61.68 316.64 61.68 316.64 27.95 309.26 27.95 309.26 20.19 332.34 20.19 332.34 27.95 324.75 27.95 324.75 61.68"/><polygon className="cls-1" points="141.72 52.94 137.66 41.5 145.43 20.19 153.54 20.19 141.72 52.94"/><polygon className="cls-1" points="139.1 61.68 130.89 61.68 116.14 20.19 124.29 20.19 139.1 61.68"/><polygon className="cls-2" points="46.81 86.15 84.71 18.51 47.26 18.51 47.26 17.48 86.48 17.48 47.71 86.65 46.81 86.15 46.81 86.15"/><polygon className="cls-3" points="38.77 77.05 0 7.88 39.22 7.88 39.22 8.91 1.77 8.91 39.67 76.55 38.77 77.05 38.77 77.05"/><polygon className="cls-4" points="47.17 0.52 47.17 0 86.39 0 47.17 69.98 7.95 0 47.17 0 47.17 0.52 47.17 1.04 9.72 1.04 47.17 67.87 84.63 1.04 47.17 1.04 47.17 0.52"/></g></g></svg>